<svg width="18px" height="19px" viewBox="0 0 18 19" version="1.1" xmlns="http://www.w3.org/2000/svg" xmlns:xlink="http://www.w3.org/1999/xlink">
   <!-- Generator: Sketch 41.2 (35397) - http://www.bohemiancoding.com/sketch -->
   <defs></defs>
   <g id="Samlet" stroke="none" stroke-width="0.5" fill="none" fill-rule="evenodd">
       <g id="Forside-tablet" transform="translate(-292.000000, -796.000000)" fill="#303A47">
           <path d="M305.786166,810.862927 C307.40972,809.47237 307.159726,807.011937 307.159726,807.011937 C306.53521,809.263271 304.285268,810.805729 302.579318,810.847924 C300.829363,810.890119 299.03821,809.679594 299.03821,807.302613 C299.03821,804.96689 301.162688,803.631655 303.661688,804.048916 C303.661688,804.048916 303.578357,803.173137 302.702911,802.881523 C302.370522,801.755387 300.954828,801.130903 299.497,801.381259 C297.882809,801.65787 296.623478,802.673361 295.998025,803.757302 C296.373484,800.004767 299.871522,798.587018 302.745045,799.044598 C301.287217,798.126624 299.580331,798.210076 298.454892,798.502628 C300.218892,797.188959 301.781586,796.439765 304.889185,796.816706 C303.740338,796.292551 302.465089,796 301.12149,796 C296.084166,796 292,800.089157 292,805.133794 C292,810.179369 296.084166,814.268526 301.12149,814.268526 C305.380745,814.268526 308.957433,811.344887 309.960217,807.388878 C308.354452,810.310642 305.786166,810.862927 305.786166,810.862927 M301.875217,802.715556 C301.875217,802.902152 301.724471,803.052178 301.53721,803.052178 C301.350885,803.052178 301.20014,802.902152 301.20014,802.715556 C301.20014,802.528961 301.350885,802.377059 301.53721,802.377059 C301.724471,802.377059 301.875217,802.528961 301.875217,802.715556" id="Fill-1"></path>
       </g>
   </g>
</svg>